# xmcd CD database file
#
# Track frame offsets:
#	182
#	23495
#	49575
#	73997
#	97157
#
# Disc length: 1637 seconds
#
# Revision: 3
# Processed by: cddbd v1.5.2PL0 Copyright (c) Steve Scherf et al.
# Submitted via: CDex 1.77
#
DISCID=3e066305
DTITLE=Puff Daddy - Tribute To The Notorious B.I.G. (Single)
DYEAR=1997
DGENRE=Rap
TTITLE0=Puff Daddy and Faith Evans feat. 112 - I'll Be Missing You
TTITLE1=The Lox - We'll Always Love Big Poppa
TTITLE2=112 - Cry On
TTITLE3=Puff Daddy and Faith Evans feat. 112 - I'll Be Missing You (Instrumental)
TTITLE4=The Lox - We'll Always Love Big Poppa (Instrumental)
EXTD=YEAR: 1997
EXTT0=
EXTT1=
EXTT2=
EXTT3=
EXTT4=
PLAYORDER=
